<?xml version="1.0"?>
<svg xmlns="http://www.w3.org/2000/svg" xmlns:xlink="http://www.w3.org/1999/xlink" version="1.1" width="512" height="512" x="0" y="0" viewBox="0 0 24 24" style="enable-background:new 0 0 512 512" xml:space="preserve"><g><path xmlns="http://www.w3.org/2000/svg" d="M12,0A12,12,0,1,0,24,12,12.013,12.013,0,0,0,12,0ZM8,8a2,2,0,0,1,2,2c0,1-.895,1-2,1s-2,0-2-1A2,2,0,0,1,8,8Zm9.666,7.746A9.454,9.454,0,0,1,12,18a9.454,9.454,0,0,1-5.666-2.254,1,1,0,0,1,1.332-1.492A7.509,7.509,0,0,0,12,16a7.508,7.508,0,0,0,4.336-1.748,1,1,0,0,1,1.33,1.494ZM16,11c-1.105,0-2,0-2-1a2,2,0,0,1,4,0C18,11,17.105,11,16,11Z" fill="#ffffff" data-original="#000000"/></g></svg>
